<?xml version="1.0" standalone="no"?><!DOCTYPE svg PUBLIC "-//W3C//DTD SVG 1.1//EN" "http://www.w3.org/Graphics/SVG/1.1/DTD/svg11.dtd"><svg class="icon" width="200px" height="200.00px" viewBox="0 0 1024 1024" version="1.1" xmlns="http://www.w3.org/2000/svg"><path fill="#333333" d="M767.095595 78.399565h-513.733888c-59.112737 0-107.030123 47.928089-107.030123 107.030123v396.011456c0 1.712482 0.171248 3.360746 0.24617 5.041119l-0.24617 0.149842v281.917344l20.046742 34.495809c29.700859 51.106884 95.213998 68.456467 146.331585 38.755607l218.523402-127.034053 186.318038 108.303782c51.106884 29.700859 116.620022 12.351276 146.331585-38.755608l10.242783-17.617158V185.429688c0-59.102034-47.917386-107.030123-107.030124-107.030123z m32.109037 768.090976l-0.085624 0.171248a31.916383 31.916383 0 0 1-27.870644 15.9903 31.595292 31.595292 0 0 1-16.054518-4.366829l-223.971236-130.191441-256.187303 148.921713c-4.987604 2.900516-10.381922 4.366829-16.033112 4.366829a31.90568 31.90568 0 0 1-27.870644-15.9903l-9.900286-17.039196V630.107741l2.044275-1.166628-1.88373-45.948032-0.171249-2.943329v-394.620064c0-17.702782 14.406255-32.109037 32.109037-32.109037h513.733888c17.702782 0 32.109037 14.406255 32.109037 32.109037v661.060853z"  /><path fill="#333333" d="M644.010954 308.075506c0 20.699626-16.760917 37.460543-37.460543 37.460544h-192.643519a37.44984 37.44984 0 0 1-37.460543-37.460544c0-20.699626 16.760917-37.460543 37.460543-37.460543h192.643519a37.460543 37.460543 0 0 1 37.460543 37.460543z"  /></svg>